<svg width="32" height="32" viewBox="0 0 32 32" fill="none" xmlns="http://www.w3.org/2000/svg">
<path d="M14.4286 2.28571H3.42856C2.79642 2.28571 2.28571 2.79642 2.28571 3.42856V14.4286C2.28571 14.5857 2.41428 14.7143 2.57142 14.7143H14.4286C14.5857 14.7143 14.7143 14.5857 14.7143 14.4286V2.57142C14.7143 2.41428 14.5857 2.28571 14.4286 2.28571ZM12.4286 12.4286H4.57142V4.57142H12.4286V12.4286ZM7.49999 9.78571H9.49999C9.65713 9.78571 9.78571 9.65713 9.78571 9.49999V7.49999C9.78571 7.34285 9.65713 7.21428 9.49999 7.21428H7.49999C7.34285 7.21428 7.21428 7.34285 7.21428 7.49999V9.49999C7.21428 9.65713 7.34285 9.78571 7.49999 9.78571ZM14.4286 17.2857H2.57142C2.41428 17.2857 2.28571 17.4143 2.28571 17.5714V28.5714C2.28571 29.2036 2.79642 29.7143 3.42856 29.7143H14.4286C14.5857 29.7143 14.7143 29.5857 14.7143 29.4286V17.5714C14.7143 17.4143 14.5857 17.2857 14.4286 17.2857ZM12.4286 27.4286H4.57142V19.5714H12.4286V27.4286ZM7.49999 24.7857H9.49999C9.65713 24.7857 9.78571 24.6571 9.78571 24.5V22.5C9.78571 22.3428 9.65713 22.2143 9.49999 22.2143H7.49999C7.34285 22.2143 7.21428 22.3428 7.21428 22.5V24.5C7.21428 24.6571 7.34285 24.7857 7.49999 24.7857ZM28.5714 2.28571H17.5714C17.4143 2.28571 17.2857 2.41428 17.2857 2.57142V14.4286C17.2857 14.5857 17.4143 14.7143 17.5714 14.7143H29.4286C29.5857 14.7143 29.7143 14.5857 29.7143 14.4286V3.42856C29.7143 2.79642 29.2036 2.28571 28.5714 2.28571ZM27.4286 12.4286H19.5714V4.57142H27.4286V12.4286ZM22.5 9.78571H24.5C24.6571 9.78571 24.7857 9.65713 24.7857 9.49999V7.49999C24.7857 7.34285 24.6571 7.21428 24.5 7.21428H22.5C22.3428 7.21428 22.2143 7.34285 22.2143 7.49999V9.49999C22.2143 9.65713 22.3428 9.78571 22.5 9.78571ZM29.4286 17.2857H27.7143C27.5571 17.2857 27.4286 17.4143 27.4286 17.5714V22.3571H24.6428V17.5714C24.6428 17.4143 24.5143 17.2857 24.3571 17.2857H17.5714C17.4143 17.2857 17.2857 17.4143 17.2857 17.5714V29.4286C17.2857 29.5857 17.4143 29.7143 17.5714 29.7143H19.2857C19.4428 29.7143 19.5714 29.5857 19.5714 29.4286V20.7143H22.3571V24.3571C22.3571 24.5143 22.4857 24.6428 22.6428 24.6428H29.4286C29.5857 24.6428 29.7143 24.5143 29.7143 24.3571V17.5714C29.7143 17.4143 29.5857 17.2857 29.4286 17.2857ZM24.3571 27.4286H22.6428C22.4857 27.4286 22.3571 27.5571 22.3571 27.7143V29.4286C22.3571 29.5857 22.4857 29.7143 22.6428 29.7143H24.3571C24.5143 29.7143 24.6428 29.5857 24.6428 29.4286V27.7143C24.6428 27.5571 24.5143 27.4286 24.3571 27.4286ZM29.4286 27.4286H27.7143C27.5571 27.4286 27.4286 27.5571 27.4286 27.7143V29.4286C27.4286 29.5857 27.5571 29.7143 27.7143 29.7143H29.4286C29.5857 29.7143 29.7143 29.5857 29.7143 29.4286V27.7143C29.7143 27.5571 29.5857 27.4286 29.4286 27.4286Z" fill="currentColor"/>
</svg>
